#Produced by Art of Illusion 2.6.1, Sat Nov 22 19:31:59 CST 2008
mtllib gun.mtl
g Cube_1
usemtl black
v 0.065 -0.07284 0.75534
v -0.065 -0.07284 0.75534
v 0 -0.12123 0.43908
v 0.065 -0.12123 -0.25614
v -0.065 -0.12123 -0.25614
v 0.065 -0.143 0.43908
v 0.065 -0.068 -0.25614
v 0.065 -0.068 0.75534
v -0.065 -0.143 0.43908
v -0.065 -0.068 0.75534
v -0.065 -0.068 -0.25614
v 0 -0.068 0.43908
v 0 -0.09461 -0.25614
vn 0.06522 -0.98831 0.13781
vn 1 0 0
vn -1 0 0
vn -0.06522 -0.98831 0.13781
vn 0 -0.99856 0.05363
vn 0.03033 -0.99954 0.00284
vn 0 0 -1
vn 1 0 0
vn -0.03033 -0.99954 0.00284
vn -1 0 0
vn 0 0 -1
vn 1 0 0
vn 0 0 -1
vn 0 1 0
vn 1 0 0
vn 0 1 0
vn 1 0 0
vn -1 0 0
vn -1 0 0
vn 0 1 0
vn 0 1 0
vn 0 0 -1
vn -1 0 0
vn 0 1 0
vn 0 0 -1
f 1//1 2//4 3//5
f 4//6 1//1 3//5
f 5//9 4//6 3//5
f 2//4 5//9 3//5
f 1//2 4//8 6//12
f 4//8 7//15 6//12
f 7//15 8//17 6//12
f 8//17 1//2 6//12
f 5//10 2//3 9//18
f 2//3 10//19 9//18
f 10//19 11//23 9//18
f 11//23 5//10 9//18
f 10//20 8//16 12//24
f 8//16 7//14 12//24
f 7//14 11//21 12//24
f 11//21 10//20 12//24
f 4//7 5//11 13//25
f 5//11 11//22 13//25
f 11//22 7//13 13//25
f 7//13 4//7 13//25
g Cube_1_1
usemtl black
v -0.06383 -0.07565 1.22554
v -0.06383 -0.07565 -0.25755
v 0 -0.07565 0.48399
v 0.06383 -0.07565 1.22554
v 0.06383 -0.07565 -0.25755
v 0 -0.05043 1.22554
v 0.06383 -0.02522 1.22554
v -0.06383 -0.02522 1.22554
v -0.06383 -0.05043 0.48399
v -0.06383 -0.02522 -0.25755
v 0 -0.05043 -0.25755
v 0.06383 -0.02522 -0.25755
v 0 -0.02522 0.48399
v 0.06383 -0.05043 0.48399
vn -1 0 0
vn 0 0 1
vn 0 -1 0
vn 0 0 -1
vn -1 0 0
vn 0 -1 0
vn 0 -1 0
vn 0 -1 0
vn 1 0 0
vn 0 0 1
vn 0 -1 0
vn 0 0 -1
vn 1 0 0
vn 0 0 1
vn 1 0 0
vn 0 1 0
vn 0 0 1
vn 0 1 0
vn -1 0 0
vn 0 0 1
vn -1 0 0
vn 0 1 0
vn 0 0 -1
vn -1 0 0
vn 0 0 -1
vn 0 1 0
vn 1 0 0
vn 0 0 -1
vn 0 1 0
vn 1 0 0
f 14//28 15//31 16//32
f 17//33 14//28 16//32
f 18//36 17//33 16//32
f 15//31 18//36 16//32
f 14//27 17//35 19//39
f 17//35 20//42 19//39
f 20//42 21//45 19//39
f 21//45 14//27 19//39
f 15//30 14//26 22//46
f 14//26 21//44 22//46
f 21//44 23//49 22//46
f 23//49 15//30 22//46
f 18//37 15//29 24//50
f 15//29 23//48 24//50
f 23//48 25//53 24//50
f 25//53 18//37 24//50
f 23//47 21//43 26//54
f 21//43 20//41 26//54
f 20//41 25//51 26//54
f 25//51 23//47 26//54
f 17//34 18//38 27//55
f 18//38 25//52 27//55
f 25//52 20//40 27//55
f 20//40 17//34 27//55
g Cylinder_7
usemtl black
v -0 0.08 1.22835
v 0.14 0.195 1.22835
v -0 0.195 1.22835
v -0.14 0.195 1.22835
v -0 0.31 1.22835
v 0.14 0.195 -0.11236
v -0 0.08 -0.11236
v -0.14 0.195 -0.11236
v -0 0.31 -0.11236
v -0 0.195 -0.11236
vn 0 -1 0
vn 0 0 1
vn 1 0 0
vn 0 0 1
vn 0 0 1
vn 0 0 1
vn -1 -0 0
vn 0 0 1
vn -0 1 0
vn 0 0 -1
vn 1 -0 0
vn 0 0 -1
vn -0 -1 0
vn 0 0 -1
vn -1 0 0
vn 0 0 -1
vn 0 1 0
vn 0 0 -1
f 28//57 29//59 30//60
f 31//61 28//57 30//60
f 32//63 31//61 30//60
f 29//59 32//63 30//60
f 33//66 29//58 28//56
f 34//68 28//56 31//62
f 35//70 31//62 32//64
f 36//72 32//64 29//58
f 33//66 28//56 34//68
f 34//68 31//62 35//70
f 35//70 32//64 36//72
f 36//72 29//58 33//66
f 37//73 33//65 34//67
f 37//73 34//67 35//69
f 37//73 35//69 36//71
f 37//73 36//71 33//65
g Cylinder_5
usemtl black
v -0 0.205 -0.255
v 0.15 0.065 -0.255
v -0 0.065 -0.255
v -0.15 0.065 -0.255
v -0 -0.075 -0.255
v 0.15 0.065 1.225
v -0 0.205 1.225
v -0.15 0.065 1.225
v -0 -0.075 1.225
v -0 0.065 1.225
vn -0 1 0
vn 0 0 -1
vn 1 0 0
vn 0 0 -1
vn 0 0 -1
vn 0 0 -1
vn -1 0 0
vn 0 0 -1
vn -0 -1 0
vn 0 0 1
vn 1 0 0
vn 0 0 1
vn -0 1 0
vn 0 0 1
vn -1 0 0
vn 0 0 1
vn -0 -1 0
vn 0 0 1
f 38//75 39//77 40//78
f 41//79 38//75 40//78
f 42//81 41//79 40//78
f 39//77 42//81 40//78
f 43//84 39//76 38//74
f 44//86 38//74 41//80
f 45//88 41//80 42//82
f 46//90 42//82 39//76
f 43//84 38//74 44//86
f 44//86 41//80 45//88
f 45//88 42//82 46//90
f 46//90 39//76 43//84
f 47//91 43//83 44//85
f 47//91 44//85 45//87
f 47//91 45//87 46//89
f 47//91 46//89 43//83
g Cube_2_1
usemtl black
v 0.105 0.035 1.225
v 0.105 0.035 -0.25
v 0.13 0.035 0.4875
v 0.155 0.035 1.225
v 0.155 0.035 -0.25
v 0.13 0.06 1.225
v 0.155 0.085 1.225
v 0.105 0.085 1.225
v 0.105 0.06 0.4875
v 0.105 0.085 -0.25
v 0.13 0.06 -0.25
v 0.155 0.085 -0.25
v 0.13 0.085 0.4875
v 0.155 0.06 0.4875
vn -1 0 0
vn 0 0 1
vn 0 -1 0
vn 0 0 -1
vn -1 0 0
vn 0 -1 0
vn 0 -1 0
vn 0 -1 0
vn 1 0 0
vn 0 0 1
vn 0 -1 0
vn 0 0 -1
vn 1 0 0
vn 0 0 1
vn 1 0 0
vn 0 1 0
vn 0 0 1
vn 0 1 0
vn -1 0 0
vn 0 0 1
vn -1 0 0
vn 0 1 0
vn 0 0 -1
vn -1 0 0
vn 0 0 -1
vn 0 1 0
vn 1 0 0
vn 0 0 -1
vn 0 1 0
vn 1 0 0
f 48//94 49//97 50//98
f 51//99 48//94 50//98
f 52//102 51//99 50//98
f 49//97 52//102 50//98
f 48//93 51//101 53//105
f 51//101 54//108 53//105
f 54//108 55//111 53//105
f 55//111 48//93 53//105
f 49//96 48//92 56//112
f 48//92 55//110 56//112
f 55//110 57//115 56//112
f 57//115 49//96 56//112
f 52//103 49//95 58//116
f 49//95 57//114 58//116
f 57//114 59//119 58//116
f 59//119 52//103 58//116
f 57//113 55//109 60//120
f 55//109 54//107 60//120
f 54//107 59//117 60//120
f 59//117 57//113 60//120
f 51//100 52//104 61//121
f 52//104 59//118 61//121
f 59//118 54//106 61//121
f 54//106 51//100 61//121
g Cube_2
usemtl black
v -0.165 0.035 1.23
v -0.165 0.035 -0.255
v -0.14 0.035 0.4875
v -0.115 0.035 1.23
v -0.115 0.035 -0.255
v -0.14 0.06 1.23
v -0.115 0.085 1.23
v -0.165 0.085 1.23
v -0.165 0.06 0.4875
v -0.165 0.085 -0.255
v -0.14 0.06 -0.255
v -0.115 0.085 -0.255
v -0.14 0.085 0.4875
v -0.115 0.06 0.4875
vn -1 0 0
vn 0 0 1
vn 0 -1 0
vn 0 0 -1
vn -1 0 0
vn 0 -1 0
vn 0 -1 0
vn 0 -1 0
vn 1 0 0
vn 0 0 1
vn 0 -1 0
vn 0 0 -1
vn 1 0 0
vn 0 0 1
vn 1 0 0
vn 0 1 0
vn 0 0 1
vn 0 1 0
vn -1 0 0
vn 0 0 1
vn -1 0 0
vn 0 1 0
vn 0 0 -1
vn -1 0 0
vn 0 0 -1
vn 0 1 0
vn 1 0 0
vn 0 0 -1
vn 0 1 0
vn 1 0 0
f 62//124 63//127 64//128
f 65//129 62//124 64//128
f 66//132 65//129 64//128
f 63//127 66//132 64//128
f 62//123 65//131 67//135
f 65//131 68//138 67//135
f 68//138 69//141 67//135
f 69//141 62//123 67//135
f 63//126 62//122 70//142
f 62//122 69//140 70//142
f 69//140 71//145 70//142
f 71//145 63//126 70//142
f 66//133 63//125 72//146
f 63//125 71//144 72//146
f 71//144 73//149 72//146
f 73//149 66//133 72//146
f 71//143 69//139 74//150
f 69//139 68//137 74//150
f 68//137 73//147 74//150
f 73//147 71//143 74//150
f 65//130 66//134 75//151
f 66//134 73//148 75//151
f 73//148 68//136 75//151
f 68//136 65//130 75//151
