# Wavefront OBJ file
# Exported by Misfit Model 3D 1.3.6
# Mon Aug  2 16:57:53 2010

mtllib tree3.mtl

# 134 Vertices
v 1.828734 -46.41843 1.912817
v 0.713443 -35.708764 1.072941
v -1.873265 -35.708764 1.072941
v -1.275307 -46.41843 2.685441
v 1.244235 -20.699055 1.5164
v -0.704224 -20.699055 1.5164
v 0.377484 -9.122639 0.5489
v -1.537349 -9.122639 0.5489
v 0.612651 5.463736 0.716858
v -0.912516 5.463736 0.716858
v -0.798265 20.473446 -0.653767
v -1.584391 20.473446 -0.653767
v 0.995609 25.895442 17.251691
v -0.966266 48.618274 0.307025
v -0.966266 18.518277 -1.197975
v -20.847015 29.053278 -1.661558
v -0.274224 1.748278 -21.199683
v -22.291557 5.618279 -16.892974
v -0.737807 -9.431722 -0.7411
v -19.839224 -4.056722 6.992192
v -19.839224 0.673279 -0.835184
v -11.877516 6.693278 22.902192
v -0.462349 -6.421722 -0.378309
v 7.922651 1.318278 18.729817
v -0.247349 -0.831725 20.362484
v 23.274985 3.253277 16.062484
v 0.209526 -10.936723 -0.089392
v 19.31765 -0.831725 -7.829391
v 20.365776 1.963278 0.031567
v 14.554068 6.048279 -19.405808
v -0.522807 -6.421722 -0.4186
v -8.256099 5.18828 -19.533433
v 10.146568 1.318278 15.7064
v 26.217818 10.993279 2.154692
v 0.317026 -5.131723 -0.297684
v 12.995318 4.97328 -16.557058
v 18.269526 10.993279 -10.3086
v 2.352818 13.143277 -25.30485
v -0.106266 -2.121723 -0.47235
v -16.78889 3.898276 -13.15735
v -10.654682 3.468276 -18.337517
v -28.875932 7.553278 -2.844058
v -0.82514 -6.636722 -0.391725
v -13.503432 7.123278 15.860942
v -17.97139 7.553278 9.357192
v -2.477974 13.143277 26.073443
v -0.032349 -2.121723 -0.465642
v 16.227026 6.048279 12.205942
v 18.209068 9.273276 8.463566
v 22.099234 17.443278 -14.669058
v -0.348141 1.103279 -0.586558
v 0.706735 11.208279 -21.179559
v 8.258609 14.218276 -18.841433
v -14.874057 18.303278 -24.881557
v -0.791557 4.113276 -0.499225
v -20.954516 11.423279 -1.554058
v -19.684683 6.263279 -9.07235
v -23.581556 18.088278 12.770317
v -1.342516 -0.40172 -0.015475
v -2.397349 9.918275 20.577483
v -9.787974 14.218276 17.809358
v 13.344693 17.658278 23.849525
v -0.731099 4.113276 -0.5261
v 19.646859 12.068278 0.522025
v -4.412974 21.52828 19.872025
v 17.517026 29.483277 19.872025
v -0.327974 14.003277 0.092025
v 19.452026 23.893277 -4.207975
v 19.022026 26.258275 5.252025
v 18.162026 32.27828 -21.837975
v -0.757974 17.013279 -0.337975
v -1.617974 24.968276 -20.977974
v 2.682026 22.603279 -20.977974
v -21.397974 26.47328 -20.547975
v -1.187974 12.283278 -0.767975
v -21.397974 22.603279 3.532026
v -20.107974 24.323277 -4.207975
v -20.537975 31.203276 19.442026
v -0.757974 17.013279 -0.337975
v 3.542026 26.90328 19.872025
v 10.388442 -6.636722 16.6739
v 28.912026 0.888279 -0.337975
v 0.108734 -15.236721 -0.337975
v 8.95736 -2.336723 -17.638766
v 16.260609 -0.18672 -11.840475
v -0.327974 2.178278 -26.057349
v -0.327974 -12.226721 -0.479058
v -17.622059 -2.121723 -11.692684
v -12.179849 -3.841722 -17.349849
v -26.403431 -0.18672 -0.337975
v -1.04014 -16.741722 -0.337975
v -10.748766 -3.411722 16.962817
v -18.985932 1.533278 10.875608
v -0.254057 0.673279 25.314193
v -0.254057 -12.226721 -0.47235
v 16.623443 -4.056722 10.734525
v 20.385943 14.003277 -5.820475
v 7.203734 25.183276 -26.050641
v -0.516099 6.478279 -0.828433
v -12.287349 16.368279 -17.289392
v -5.642516 19.593276 -20.353142
v -27.250016 23.678278 -10.107059
v -0.791557 9.488276 -0.47235
v -16.916557 16.798279 11.668442
v -20.564849 12.498278 5.097483
v -9.284057 25.398276 24.333276
v -0.899057 4.97328 0.246567
v 11.087193 15.508275 16.700776
v 4.079526 19.593276 19.327817
v 25.693734 23.033278 9.081691
v -0.764682 9.488276 -0.539559
v 15.521568 17.443278 -12.828141
v -12.441892 25.613276 -14.830308
v 14.493567 46.179365 -10.987183
v -0.811724 17.658278 -0.895642
v 8.366067 29.62436 9.457942
v 0.269984 -46.41843 -3.180017
v 1.512942 -35.708764 -1.392808
v 3.172484 -46.41843 -0.270766
v -0.583308 -35.708764 -2.911267
v 0.269984 -20.699055 -1.466725
v 1.842193 -20.699055 -0.331267
v -0.583308 -9.122639 -2.400642
v 0.968734 -9.122639 -1.271892
v -0.153308 5.463736 -1.641434
v 1.089693 5.463736 -0.7411
v -1.187974 21.111736 -1.863142
v -0.563141 20.836234 -1.399559
v -3.015474 -46.41843 -0.270766
v -2.672807 -35.708764 -1.392808
v -1.530641 -20.699055 -0.331267
v -2.128599 -9.122639 -1.271892
v -1.389515 5.463736 -0.7411
v -1.826266 20.836234 -1.399559

# 315 Texture Coordinates
vt 0.340248 -1.132812
vt 0.568741 -0.794448
vt 0.393198 -0.794448
vt 0.340248 -1.132812
vt 0.495808 -1.132812
vt 0.568741 -0.794448
vt 0.576786 -0.791243
vt 0.269531 -0.791243
vt 0.699219 -1.132812
vt 0.576786 -0.791243
vt 0.642889 -0.312588
vt 0.269531 -0.791243
vt 0.393198 -0.794448
vt 0.568741 -0.794448
vt 0.359277 -0.320284
vt 0.269531 -0.791243
vt 0.330513 -1.132812
vt 0.699219 -1.132812
vt 0.393198 -0.794448
vt 0.495808 -1.132812
vt 0.285156 -1.132812
vt 0.393198 -0.794448
vt 0.568741 -0.794448
vt 0.495808 -1.132812
vt 0.393198 -0.794448
vt 0.505563 -0.320284
vt 0.568741 -0.794448
vt 0.642889 -0.312588
vt 0.386843 -0.312588
vt 0.269531 -0.791243
vt 0.642889 -0.312588
vt 0.32074 0.056399
vt 0.386843 -0.312588
vt 0.359277 -0.320284
vt 0.552568 0.04524
vt 0.435539 0.04524
vt 0.359277 -0.320284
vt 0.505563 -0.320284
vt 0.393198 -0.794448
vt 0.525577 0.056399
vt 0.32074 0.056399
vt 0.642889 -0.312588
vt 0.525577 0.056399
vt 0.550947 0.521345
vt 0.32074 0.056399
vt 0.435539 0.04524
vt 0.552568 0.04524
vt 0.42493 0.505824
vt 0.435539 0.04524
vt 0.505563 -0.320284
vt 0.359277 -0.320284
vt 0.435539 0.04524
vt 0.552568 0.04524
vt 0.505563 -0.320284
vt 0.435539 0.04524
vt 0.518553 0.505824
vt 0.552568 0.04524
vt 0.550947 0.521345
vt 0.387078 0.521345
vt 0.32074 0.056399
vt 0.550947 0.521345
vt 0.315703 1.0
vt 0.387078 0.521345
vt 0.42493 0.505824
vt 0.561016 0.991423
vt 0.513082 0.979987
vt 0.42493 0.505824
vt 0.518553 0.505824
vt 0.435539 0.04524
vt 0.399604 1.0
vt 0.315703 1.0
vt 0.550947 0.521345
vt 0.513082 0.979987
vt 0.561016 0.991423
vt 0.513082 0.979987
vt 0.513082 0.979987
vt 0.518553 0.505824
vt 0.42493 0.505824
vt 0.513082 0.979987
vt 0.561016 0.991423
vt 0.518553 0.505824
vt 0.703125 -1.132812
vt 0.677232 -0.794448
vt 0.568741 -0.794448
vt 0.703125 -1.132812
vt 0.495808 -1.132812
vt 0.677232 -0.794448
vt 0.568741 -0.794448
vt 0.495808 -1.132812
vt 0.703125 -1.132812
vt 0.568741 -0.794448
vt 0.505563 -0.320284
vt 0.359277 -0.320284
vt 0.677232 -0.794448
vt 0.595972 -0.320284
vt 0.568741 -0.794448
vt 0.677232 -0.794448
vt 0.505563 -0.320284
vt 0.595972 -0.320284
vt 0.595972 -0.320284
vt 0.505563 -0.320284
vt 0.568741 -0.794448
vt 0.595972 -0.320284
vt 0.552568 0.04524
vt 0.505563 -0.320284
vt 0.595972 -0.320284
vt 0.505563 -0.320284
vt 0.624895 0.04524
vt 0.505563 -0.320284
vt 0.552568 0.04524
vt 0.359277 -0.320284
vt 0.624895 0.04524
vt 0.552568 0.04524
vt 0.595972 -0.320284
vt 0.624895 0.04524
vt 0.576415 0.505824
vt 0.552568 0.04524
vt 0.624895 0.04524
vt 0.518553 0.505824
vt 0.576415 0.505824
vt 0.552568 0.04524
vt 0.518553 0.505824
vt 0.42493 0.505824
vt 0.576415 0.505824
vt 0.518553 0.505824
vt 0.552568 0.04524
vt 0.576415 0.505824
vt 0.561016 0.991423
vt 0.518553 0.505824
vt 0.576415 0.505824
vt 0.518553 0.505824
vt 0.590642 1.0
vt 0.518553 0.505824
vt 0.561016 0.991423
vt 0.42493 0.505824
vt 0.590642 1.0
vt 0.561016 0.991423
vt 0.576415 0.505824
vt 0.590642 1.0
vt 0.561016 0.991423
vt 0.561016 0.991423
vt 0.561016 0.991423
vt 0.561016 0.991423
vt 0.513082 0.979987
vt 0.495808 -1.132812
vt 0.568741 -0.794448
vt 0.677232 -0.794448
vt 0.568741 -0.794448
vt 0.505563 -0.320284
vt 0.677232 -0.794448
vt 0.505563 -0.320284
vt 0.552568 0.04524
vt 0.624895 0.04524
vt 0.552568 0.04524
vt 0.518553 0.505824
vt 0.624895 0.04524
vt 0.518553 0.505824
vt 0.561016 0.991423
vt 0.590642 1.0
vt -0.001537 0.99891
vt 1.000204 0.000653
vt 0.998462 1.000652
vt -0.001537 0.99891
vt 0.000205 -0.001088
vt 1.000204 0.000653
vt -0.001537 0.99891
vt 1.000204 0.000653
vt 0.998462 1.000652
vt -0.001537 0.99891
vt 0.000205 -0.001088
vt 1.000204 0.000653
vt -0.001537 0.99891
vt 1.000204 0.000653
vt 0.998462 1.000652
vt -0.001537 0.99891
vt 0.000205 -0.001088
vt 1.000204 0.000653
vt -0.001537 0.99891
vt 1.000204 0.000653
vt 0.998462 1.000652
vt -0.001537 0.99891
vt 0.000205 -0.001088
vt 1.000204 0.000653
vt -0.001537 0.99891
vt 1.000204 0.000653
vt 0.998462 1.000652
vt -0.001537 0.99891
vt 0.000205 -0.001088
vt 1.000204 0.000653
vt -0.001537 0.99891
vt 1.000204 0.000653
vt 0.998462 1.000652
vt -0.001537 0.99891
vt 0.000205 -0.001088
vt 1.000204 0.000653
vt -0.001537 0.99891
vt 1.000204 0.000653
vt 0.998462 1.000652
vt -0.001537 0.99891
vt 0.000205 -0.001088
vt 1.000204 0.000653
vt -0.001537 0.99891
vt 1.000204 0.000653
vt 0.998462 1.000652
vt -0.001537 0.99891
vt 0.000205 -0.001088
vt 1.000204 0.000653
vt -0.001537 0.99891
vt 1.000204 0.000653
vt 0.998462 1.000652
vt -0.001537 0.99891
vt 0.000205 -0.001088
vt 1.000204 0.000653
vt -0.001537 0.99891
vt 1.000204 0.000653
vt 0.998462 1.000652
vt -0.001537 0.99891
vt 0.000205 -0.001088
vt 1.000204 0.000653
vt -0.001537 0.99891
vt 1.000204 0.000653
vt 0.998462 1.000652
vt -0.001537 0.99891
vt 0.000205 -0.001088
vt 1.000204 0.000653
vt -0.001537 0.99891
vt 1.000204 0.000653
vt 0.998462 1.000652
vt -0.001537 0.99891
vt 0.000205 -0.001088
vt 1.000204 0.000653
vt -0.001537 0.99891
vt 1.000204 0.000653
vt 0.998462 1.000652
vt -0.001537 0.99891
vt 0.000205 -0.001088
vt 1.000204 0.000653
vt -0.001537 0.99891
vt 1.000204 0.000653
vt 0.998462 1.000652
vt -0.001537 0.99891
vt 0.000205 -0.001088
vt 1.000204 0.000653
vt -0.001537 0.99891
vt 1.000204 0.000653
vt 0.998462 1.000652
vt -0.001537 0.99891
vt 0.000205 -0.001088
vt 1.000204 0.000653
vt -0.001537 0.99891
vt 1.000204 0.000653
vt 0.998462 1.000652
vt -0.001537 0.99891
vt 0.000205 -0.001088
vt 1.000204 0.000653
vt -0.001537 0.99891
vt 1.000204 0.000653
vt 0.998462 1.000652
vt -0.001537 0.99891
vt 0.000205 -0.001088
vt 1.000204 0.000653
vt -0.001537 0.99891
vt 1.000204 0.000653
vt 0.998462 1.000652
vt -0.001537 0.99891
vt 0.000205 -0.001088
vt 1.000204 0.000653
vt -0.001537 0.99891
vt 1.000204 0.000653
vt 0.998462 1.000652
vt -0.001537 0.99891
vt 0.000205 -0.001088
vt 1.000204 0.000653
vt -0.001537 0.99891
vt 1.000204 0.000653
vt 0.998462 1.000652
vt -0.001537 0.99891
vt 0.000205 -0.001088
vt 1.000204 0.000653
vt -0.001537 0.99891
vt 1.000204 0.000653
vt 0.998462 1.000652
vt -0.001537 0.99891
vt 0.000205 -0.001088
vt 1.000204 0.000653
vt -0.001537 0.99891
vt 1.000204 0.000653
vt 0.998462 1.000652
vt -0.001537 0.99891
vt 0.000205 -0.001088
vt 1.000204 0.000653
vt -0.001537 0.99891
vt 1.000204 0.000653
vt 0.998462 1.000652
vt -0.001537 0.99891
vt 0.000205 -0.001088
vt 1.000204 0.000653
vt -0.001537 0.99891
vt 1.000204 0.000653
vt 0.998462 1.000652
vt -0.001537 0.99891
vt 0.000205 -0.001088
vt 1.000204 0.000653
vt -0.001537 0.99891
vt 1.000204 0.000653
vt 0.998462 1.000652
vt -0.001537 0.99891
vt 0.000205 -0.001088
vt 1.000204 0.000653
vt -0.001537 0.99891
vt 1.000204 0.000653
vt 0.998462 1.000652
vt -0.001537 0.99891
vt 0.000205 -0.001088
vt 1.000204 0.000653

# 315 Vertex Normals
vn 0.581079 0.155873 0.798781
vn 0.961971 0.064532 -0.265418
vn 0.586843 0.039731 0.808725
vn 0.581079 0.155873 0.798781
vn 0.982754 0.139576 -0.121301
vn 0.961971 0.064532 -0.265418
vn 0.586843 0.039731 0.808725
vn -0.529713 0.058167 0.84618
vn 0.581079 0.155873 0.798781
vn 0.586843 0.039731 0.808725
vn 0.58753 0.033306 0.808516
vn -0.529713 0.058167 0.84618
vn 0.586843 0.039731 0.808725
vn 0.961971 0.064532 -0.265418
vn 0.58753 0.033306 0.808516
vn -0.529713 0.058167 0.84618
vn -0.388578 0.115935 0.914093
vn 0.581079 0.155873 0.798781
vn -0.529713 0.058167 0.84618
vn -0.971941 -0.002837 -0.235209
vn -0.388578 0.115935 0.914093
vn -0.529713 0.058167 0.84618
vn -0.950202 0.046029 -0.308215
vn -0.971941 -0.002837 -0.235209
vn -0.529713 0.058167 0.84618
vn -0.954603 0.010214 -0.297706
vn -0.950202 0.046029 -0.308215
vn 0.58753 0.033306 0.808516
vn -0.543992 0.0242 0.838742
vn -0.529713 0.058167 0.84618
vn 0.58753 0.033306 0.808516
vn -0.576682 0.024823 0.816592
vn -0.543992 0.0242 0.838742
vn 0.58753 0.033306 0.808516
vn 0.950412 0.024851 -0.31
vn 0.587036 0.046234 0.808239
vn -0.543992 0.0242 0.838742
vn -0.954603 0.010214 -0.297706
vn -0.529713 0.058167 0.84618
vn 0.587036 0.046234 0.808239
vn -0.576682 0.024823 0.816592
vn 0.58753 0.033306 0.808516
vn 0.587036 0.046234 0.808239
vn 0.581292 0.054655 0.811857
vn -0.576682 0.024823 0.816592
vn 0.587036 0.046234 0.808239
vn 0.950412 0.024851 -0.31
vn 0.581292 0.054655 0.811857
vn -0.576682 0.024823 0.816592
vn -0.954603 0.010214 -0.297706
vn -0.543992 0.0242 0.838742
vn -0.576682 0.024823 0.816592
vn -0.951696 -0.007289 -0.306955
vn -0.954603 0.010214 -0.297706
vn -0.576682 0.024823 0.816592
vn -0.950506 0.009692 -0.310556
vn -0.951696 -0.007289 -0.306955
vn 0.581292 0.054655 0.811857
vn -0.587171 0.031639 0.808844
vn -0.576682 0.024823 0.816592
vn 0.581292 0.054655 0.811857
vn -0.508952 0.281512 0.813461
vn -0.587171 0.031639 0.808844
vn 0.581292 0.054655 0.811857
vn 0.831049 0.556199 0.00051
vn 0.296186 0.640593 0.708459
vn -0.587171 0.031639 0.808844
vn -0.950506 0.009692 -0.310556
vn -0.576682 0.024823 0.816592
vn 0.296186 0.640593 0.708459
vn -0.508952 0.281512 0.813461
vn 0.581292 0.054655 0.811857
vn 0.296186 0.640593 0.708459
vn -0.487147 0.827993 0.277695
vn -0.508952 0.281512 0.813461
vn -0.508952 0.281512 0.813461
vn -0.950506 0.009692 -0.310556
vn -0.587171 0.031639 0.808844
vn -0.508952 0.281512 0.813461
vn -0.487147 0.827993 0.277695
vn -0.950506 0.009692 -0.310556
vn 0.26827 0.029191 -0.962902
vn -0.240061 0.045106 -0.969709
vn 0.961971 0.064532 -0.265418
vn 0.26827 0.029191 -0.962902
vn -0.971941 -0.002837 -0.235209
vn -0.240061 0.045106 -0.969709
vn 0.961971 0.064532 -0.265418
vn 0.982754 0.139576 -0.121301
vn 0.26827 0.029191 -0.962902
vn 0.961971 0.064532 -0.265418
vn 0.949922 0.023689 -0.311588
vn 0.58753 0.033306 0.808516
vn -0.240061 0.045106 -0.969709
vn 0.252504 0.009739 -0.967547
vn 0.961971 0.064532 -0.265418
vn -0.240061 0.045106 -0.969709
vn -0.954603 0.010214 -0.297706
vn 0.252504 0.009739 -0.967547
vn 0.252504 0.009739 -0.967547
vn 0.949922 0.023689 -0.311588
vn 0.961971 0.064532 -0.265418
vn 0.252504 0.009739 -0.967547
vn 0.950412 0.024851 -0.31
vn 0.949922 0.023689 -0.311588
vn 0.252504 0.009739 -0.967547
vn -0.954603 0.010214 -0.297706
vn -0.223497 -0.016238 -0.974569
vn 0.949922 0.023689 -0.311588
vn 0.950412 0.024851 -0.31
vn 0.58753 0.033306 0.808516
vn -0.223497 -0.016238 -0.974569
vn 0.950412 0.024851 -0.31
vn 0.252504 0.009739 -0.967547
vn -0.223497 -0.016238 -0.974569
vn 0.238542 0.023146 -0.970856
vn 0.950412 0.024851 -0.31
vn -0.223497 -0.016238 -0.974569
vn -0.950506 0.009692 -0.310556
vn 0.238542 0.023146 -0.970856
vn 0.950412 0.024851 -0.31
vn 0.9498 0.045992 -0.309458
vn 0.581292 0.054655 0.811857
vn 0.238542 0.023146 -0.970856
vn 0.9498 0.045992 -0.309458
vn 0.950412 0.024851 -0.31
vn 0.238542 0.023146 -0.970856
vn 0.831049 0.556199 0.00051
vn 0.9498 0.045992 -0.309458
vn 0.238542 0.023146 -0.970856
vn -0.950506 0.009692 -0.310556
vn -0.259978 0.36747 -0.89296
vn 0.9498 0.045992 -0.309458
vn 0.831049 0.556199 0.00051
vn 0.581292 0.054655 0.811857
vn -0.259978 0.36747 -0.89296
vn 0.831049 0.556199 0.00051
vn 0.238542 0.023146 -0.970856
vn -0.259978 0.36747 -0.89296
vn -0.487147 0.827993 0.277695
vn 0.831049 0.556199 0.00051
vn 0.831049 0.556199 0.00051
vn -0.487147 0.827993 0.277695
vn 0.296186 0.640593 0.708459
vn -0.971941 -0.002837 -0.235209
vn -0.950202 0.046029 -0.308215
vn -0.240061 0.045106 -0.969709
vn -0.950202 0.046029 -0.308215
vn -0.954603 0.010214 -0.297706
vn -0.240061 0.045106 -0.969709
vn -0.954603 0.010214 -0.297706
vn -0.951696 -0.007289 -0.306955
vn -0.223497 -0.016238 -0.974569
vn -0.951696 -0.007289 -0.306955
vn -0.950506 0.009692 -0.310556
vn -0.223497 -0.016238 -0.974569
vn -0.950506 0.009692 -0.310556
vn -0.487147 0.827993 0.277695
vn -0.259978 0.36747 -0.89296
vn -0.686122 -0.036329 0.726579
vn -0.686122 -0.036329 0.726579
vn -0.99415 -0.005394 0.107871
vn -0.686122 -0.036329 0.726579
vn -0.04969 -0.049876 0.997519
vn -0.686122 -0.036329 0.726579
vn 0.308756 0.865499 0.394438
vn 0.308756 0.865499 0.394438
vn 0.241139 0.849316 0.46959
vn 0.308756 0.865499 0.394438
vn 0.373137 0.87261 0.315152
vn 0.308756 0.865499 0.394438
vn 0.242617 0.891263 -0.383128
vn 0.242617 0.891263 -0.383128
vn 0.330946 0.882278 -0.334755
vn 0.242617 0.891263 -0.383128
vn 0.151808 0.891138 -0.427583
vn 0.242617 0.891263 -0.383128
vn -0.368618 0.893018 -0.258149
vn -0.368618 0.893018 -0.258149
vn -0.230689 0.870299 -0.435157
vn -0.368618 0.893018 -0.258149
vn -0.487794 0.870306 -0.068008
vn -0.368618 0.893018 -0.258149
vn -0.202389 0.884558 0.420233
vn -0.202389 0.884558 0.420233
vn -0.361506 0.884791 0.294039
vn -0.202389 0.884558 0.420233
vn -0.034926 0.847844 0.529095
vn -0.202389 0.884558 0.420233
vn -0.530999 0.846232 0.043954
vn -0.530999 0.846232 0.043954
vn -0.52715 0.849568 -0.018625
vn -0.530999 0.846232 0.043954
vn -0.532754 0.83956 0.10636
vn -0.530999 0.846232 0.043954
vn -0.210052 0.842049 0.496822
vn -0.210052 0.842049 0.496822
vn -0.332206 0.817851 0.469851
vn -0.210052 0.842049 0.496822
vn -0.084489 0.852576 0.515728
vn -0.210052 0.842049 0.496822
vn 0.454108 0.88977 -0.045769
vn 0.454108 0.88977 -0.045769
vn 0.417404 0.870304 0.261428
vn 0.454108 0.88977 -0.045769
vn 0.447174 0.823733 -0.348568
vn 0.454108 0.88977 -0.045769
vn 0.079992 0.867226 -0.491448
vn 0.079992 0.867226 -0.491448
vn 0.202465 0.856831 -0.474183
vn 0.079992 0.867226 -0.491448
vn -0.043713 0.86426 -0.501142
vn 0.079992 0.867226 -0.491448
vn -0.425582 0.850657 0.308647
vn -0.425582 0.850657 0.308647
vn -0.480659 0.849106 0.219057
vn -0.425582 0.850657 0.308647
vn -0.365798 0.842797 0.394823
vn -0.425582 0.850657 0.308647
vn 0.166985 0.89103 0.422115
vn 0.166985 0.89103 0.422115
vn 0.025243 0.870282 0.491906
vn 0.166985 0.89103 0.422115
vn 0.304488 0.889153 0.341605
vn 0.166985 0.89103 0.422115
vn 0.460324 0.807982 -0.367786
vn 0.460324 0.807982 -0.367786
vn 0.46894 0.80904 -0.35433
vn 0.460324 0.807982 -0.367786
vn 0.45159 0.806717 -0.381148
vn 0.460324 0.807982 -0.367786
vn -0.171338 0.899869 -0.401098
vn -0.171338 0.899869 -0.401098
vn -0.003724 0.875017 -0.484077
vn -0.171338 0.899869 -0.401098
vn -0.332853 0.892687 -0.30384
vn -0.171338 0.899869 -0.401098
vn -0.396848 0.861659 -0.316316
vn -0.396848 0.861659 -0.316316
vn -0.313489 0.864214 -0.39352
vn -0.396848 0.861659 -0.316316
vn -0.47508 0.847975 -0.235027
vn -0.396848 0.861659 -0.316316
vn -0.388349 0.877528 0.281298
vn -0.388349 0.877528 0.281298
vn -0.461572 0.862763 0.206378
vn -0.388349 0.877528 0.281298
vn -0.31078 0.882473 0.353069
vn -0.388349 0.877528 0.281298
vn 0.319687 0.893786 0.314557
vn 0.319687 0.893786 0.314557
vn 0.148093 0.869012 0.472109
vn 0.319687 0.893786 0.314557
vn 0.473737 0.869509 0.139743
vn 0.319687 0.893786 0.314557
vn 0.278055 0.890296 -0.360636
vn 0.278055 0.890296 -0.360636
vn 0.385635 0.887783 -0.251252
vn 0.278055 0.890296 -0.360636
vn 0.163929 0.871848 -0.461528
vn 0.278055 0.890296 -0.360636
vn -0.485087 0.866487 0.117857
vn -0.485087 0.866487 0.117857
vn -0.483372 0.863423 -0.1444
vn -0.485087 0.866487 0.117857
vn -0.453433 0.809944 0.372007
vn -0.485087 0.866487 0.117857
vn -0.049686 0.870249 0.4901
vn -0.049686 0.870249 0.4901
vn -0.284115 0.835418 0.470485
vn -0.049686 0.870249 0.4901
vn 0.187552 0.855863 0.481999
vn -0.049686 0.870249 0.4901
vn 0.546371 0.837074 -0.028034
vn 0.546371 0.837074 -0.028034
vn 0.526739 0.806997 0.267022
vn 0.546371 0.837074 -0.028034
vn 0.517732 0.793197 -0.320613
vn 0.546371 0.837074 -0.028034
vn 0.116379 0.888257 -0.44436
vn 0.116379 0.888257 -0.44436
vn 0.360037 0.834358 -0.417397
vn 0.116379 0.888257 -0.44436
vn -0.13461 0.886194 -0.443328
vn 0.116379 0.888257 -0.44436
vn -0.136652 0.815243 0.562765
vn -0.136652 0.815243 0.562765
vn -0.160949 0.815685 0.555656
vn -0.136652 0.815243 0.562765
vn -0.112267 0.814279 0.569514
vn -0.136652 0.815243 0.562765
vn 0.399216 0.891045 0.21602
vn 0.399216 0.891045 0.21602
vn 0.335492 0.870332 0.360511
vn 0.399216 0.891045 0.21602
vn 0.452814 0.889155 0.066049
vn 0.399216 0.891045 0.21602
vn 0.1491 0.779173 -0.608817
vn 0.1491 0.779173 -0.608817
vn 0.147853 0.779112 -0.6092
vn 0.1491 0.779173 -0.608817
vn 0.150346 0.779233 -0.608434
vn 0.1491 0.779173 -0.608817
vn -0.389003 0.899897 -0.197137
vn -0.389003 0.899897 -0.197137
vn -0.313948 0.87501 -0.368501
vn -0.389003 0.899897 -0.197137
vn -0.450202 0.89273 -0.018751
vn -0.389003 0.899897 -0.197137
vn 0.706764 -0.540694 -0.456218
vn 0.706764 -0.540694 -0.456218
vn 0.492001 -0.512923 -0.703452
vn 0.706764 -0.540694 -0.456218
vn 0.845183 -0.510059 -0.159704
vn 0.706764 -0.540694 -0.456218

# unnamed_object1_stamm, 53 grouped triangles

o unnamed_object1_stamm
g unnamed_object1_stamm

f 1/1/1 118/2/2 2/3/3
f 1/4/4 119/5/5 118/6/6
f 2/7/7 3/8/8 1/9/9
f 2/10/10 5/11/11 3/12/12
f 2/13/13 118/14/14 5/15/15
f 3/16/16 4/17/17 1/18/18
f 3/19/19 129/20/20 4/21/21
f 3/22/22 130/23/23 129/24/24
f 3/25/25 131/26/26 130/27/27
f 5/28/28 6/29/29 3/30/30
f 5/31/31 8/32/32 6/33/33
f 5/34/34 124/35/35 7/36/36
f 6/37/37 131/38/38 3/39/39
f 7/40/40 8/41/41 5/42/42
f 7/43/43 9/44/44 8/45/45
f 7/46/46 124/47/47 9/48/48
f 8/49/49 131/50/50 6/51/51
f 8/52/52 132/53/53 131/54/54
f 8/55/55 133/56/56 132/57/57
f 9/58/58 10/59/59 8/60/60
f 9/61/61 12/62/62 10/63/63
f 9/64/64 128/65/65 11/66/66
f 10/67/67 133/68/68 8/69/69
f 11/70/70 12/71/71 9/72/72
f 11/73/73 134/74/74 12/75/75
f 12/76/76 133/77/77 10/78/78
f 12/79/79 134/80/80 133/81/81
f 117/82/82 120/83/83 118/84/84
f 117/85/85 129/86/86 120/87/87
f 118/88/88 119/89/89 117/90/90
f 118/91/91 122/92/92 5/93/93
f 120/94/94 121/95/95 118/96/96
f 120/97/97 131/98/98 121/99/99
f 121/100/100 122/101/101 118/102/102
f 121/103/103 124/104/104 122/105/105
f 121/106/106 131/107/107 123/108/108
f 122/109/109 124/110/110 5/111/111
f 123/112/112 124/113/113 121/114/114
f 123/115/115 125/116/116 124/117/117
f 123/118/118 133/119/119 125/120/120
f 124/121/121 126/122/122 9/123/123
f 125/124/124 126/125/125 124/126/126
f 125/127/127 128/128/128 126/129/129
f 125/130/130 133/131/131 127/132/132
f 126/133/133 128/134/134 9/135/135
f 127/136/136 128/137/137 125/138/138
f 127/139/139 134/140/140 128/141/141
f 128/142/142 134/143/143 11/144/144
f 129/145/145 130/146/146 120/147/147
f 130/148/148 131/149/149 120/150/150
f 131/151/151 132/152/152 123/153/153
f 132/154/154 133/155/155 123/156/156
f 133/157/157 134/158/158 127/159/159
# unnamed_object1_tree5, 52 grouped triangles

usemtl leaves
o unnamed_object1_tree5
g unnamed_object1_tree5

f 14/160/160 15/161/161 13/162/162
f 14/163/163 16/164/164 15/165/165
f 18/166/166 19/167/167 17/168/168
f 18/169/169 20/170/170 19/171/171
f 22/172/172 23/173/173 21/174/174
f 22/175/175 24/176/176 23/177/177
f 26/178/178 27/179/179 25/180/180
f 26/181/181 28/182/182 27/183/183
f 30/184/184 31/185/185 29/186/186
f 30/187/187 32/188/188 31/189/189
f 34/190/190 35/191/191 33/192/192
f 34/193/193 36/194/194 35/195/195
f 38/196/196 39/197/197 37/198/198
f 38/199/199 40/200/200 39/201/201
f 42/202/202 43/203/203 41/204/204
f 42/205/205 44/206/206 43/207/207
f 46/208/208 47/209/209 45/210/210
f 46/211/211 48/212/212 47/213/213
f 50/214/214 51/215/215 49/216/216
f 50/217/217 52/218/218 51/219/219
f 54/220/220 55/221/221 53/222/222
f 54/223/223 56/224/224 55/225/225
f 58/226/226 59/227/227 57/228/228
f 58/229/229 60/230/230 59/231/231
f 62/232/232 63/233/233 61/234/234
f 62/235/235 64/236/236 63/237/237
f 66/238/238 67/239/239 65/240/240
f 66/241/241 68/242/242 67/243/243
f 70/244/244 71/245/245 69/246/246
f 70/247/247 72/248/248 71/249/249
f 74/250/250 75/251/251 73/252/252
f 74/253/253 76/254/254 75/255/255
f 78/256/256 79/257/257 77/258/258
f 78/259/259 80/260/260 79/261/261
f 82/262/262 83/263/263 81/264/264
f 82/265/265 84/266/266 83/267/267
f 86/268/268 87/269/269 85/270/270
f 86/271/271 88/272/272 87/273/273
f 90/274/274 91/275/275 89/276/276
f 90/277/277 92/278/278 91/279/279
f 94/280/280 95/281/281 93/282/282
f 94/283/283 96/284/284 95/285/285
f 98/286/286 99/287/287 97/288/288
f 98/289/289 100/290/290 99/291/291
f 102/292/292 103/293/293 101/294/294
f 102/295/295 104/296/296 103/297/297
f 106/298/298 107/299/299 105/300/300
f 106/301/301 108/302/302 107/303/303
f 110/304/304 111/305/305 109/306/306
f 110/307/307 112/308/308 111/309/309
f 114/310/310 115/311/311 113/312/312
f 114/313/313 116/314/314 115/315/315
